<svg width="390" height="58" viewBox="0 0 390 58" fill="none" xmlns="http://www.w3.org/2000/svg">
<path d="M7.92969 37V47H2.92969V22H7.92969V32H22.9297V22H27.9297V47H22.9297V37H7.92969ZM29.1797 47L41.6797 20.75L54.1797 47H48.5547L41.6797 32.625L34.8047 47H29.1797ZM64.9219 42H82.4219V47H64.9219C61.4583 47 58.5026 45.7891 56.0547 43.3672C53.6328 40.9193 52.4219 37.9635 52.4219 34.5C52.4219 31.0365 53.6328 28.0938 56.0547 25.6719C58.5026 23.224 61.4583 22 64.9219 22H84.9219L82.4219 27H64.9219C62.8385 27 61.0677 27.7292 59.6094 29.1875C58.151 30.6458 57.4219 32.4167 57.4219 34.5C57.4219 36.5833 58.151 38.3542 59.6094 39.8125C61.0677 41.2708 62.8385 42 64.9219 42ZM91.4844 38.0547V47H86.4844V22H91.4844V30.9453L103.984 22H111.484L93.9844 34.5L111.484 47H103.984L91.4844 38.0547ZM141.484 37H116.484V32H141.484V37ZM151.484 29.5V47H146.484V22H151.484L166.484 39.5V22H171.484V47H166.484L151.484 29.5ZM201.484 37H176.484V32H201.484V37ZM226.484 32.5078L218.984 48.25L206.484 22H212.109L218.984 36.375L223.672 26.5703L226.484 20.75L229.297 26.5703L233.984 36.375L240.859 22H246.484L233.984 48.25L226.484 32.5078ZM252.734 47H247.734V22H252.734V47ZM263.32 29.5V57H258.32V22H263.32L278.32 39.5V9.5H283.32V47H278.32L263.32 29.5ZM345.82 42V47H308.32V39.5C308.32 37.4167 309.049 35.6458 310.508 34.1875C311.966 32.7292 313.737 32 315.82 32H325.82C326.523 32 327.109 31.7656 327.578 31.2969C328.073 30.8021 328.32 30.2031 328.32 29.5C328.32 28.7969 328.073 28.2109 327.578 27.7422C327.109 27.2474 326.523 27 325.82 27H310.82V22H325.82C327.904 22 329.674 22.7292 331.133 24.1875C332.591 25.6458 333.32 27.4167 333.32 29.5C333.32 31.5833 332.591 33.3542 331.133 34.8125C329.674 36.2708 327.904 37 325.82 37H315.82C315.117 37 314.518 37.2474 314.023 37.7422C313.555 38.2109 313.32 38.7969 313.32 39.5V42H345.82ZM353.945 47C353.086 47 352.344 46.7005 351.719 46.1016C351.12 45.4766 350.82 44.7344 350.82 43.875C350.82 43.0156 351.12 42.2865 351.719 41.6875C352.344 41.0625 353.086 40.75 353.945 40.75C354.805 40.75 355.534 41.0625 356.133 41.6875C356.758 42.2865 357.07 43.0156 357.07 43.875C357.07 44.7344 356.758 45.4766 356.133 46.1016C355.534 46.7005 354.805 47 353.945 47ZM374.57 47C371.107 47 368.151 45.7891 365.703 43.3672C363.281 40.9193 362.07 37.9635 362.07 34.5C362.07 31.0365 363.281 28.0938 365.703 25.6719C368.151 23.224 371.107 22 374.57 22C378.034 22 380.977 23.224 383.398 25.6719C385.846 28.0938 387.07 31.0365 387.07 34.5C387.07 37.9635 385.846 40.9193 383.398 43.3672C380.977 45.7891 378.034 47 374.57 47ZM374.57 42C376.654 42 378.424 41.2708 379.883 39.8125C381.341 38.3542 382.07 36.5833 382.07 34.5C382.07 32.4167 381.341 30.6458 379.883 29.1875C378.424 27.7292 376.654 27 374.57 27C372.487 27 370.716 27.7292 369.258 29.1875C367.799 30.6458 367.07 32.4167 367.07 34.5C367.07 36.5833 367.799 38.3542 369.258 39.8125C370.716 41.2708 372.487 42 374.57 42Z" fill="#ED1B76"/>
<path d="M135 55.9494V49.1519H137.28C137.588 49.1519 137.874 49.2057 138.14 49.3133C138.411 49.4146 138.646 49.5601 138.845 49.75C139.045 49.9399 139.201 50.1677 139.316 50.4335C139.431 50.693 139.488 50.981 139.488 51.2975C139.488 51.6203 139.431 51.9146 139.316 52.1804C139.201 52.4399 139.045 52.6646 138.845 52.8544C138.646 53.0443 138.411 53.193 138.14 53.3006C137.874 53.4019 137.588 53.4525 137.28 53.4525H136.222V55.9494H135ZM137.298 52.2373C137.618 52.2373 137.859 52.1424 138.022 51.9525C138.185 51.7627 138.266 51.5443 138.266 51.2975C138.266 51.1772 138.245 51.0601 138.203 50.9462C138.167 50.8323 138.107 50.7342 138.022 50.6519C137.944 50.5633 137.844 50.4937 137.724 50.443C137.603 50.3924 137.461 50.3671 137.298 50.3671H136.222V52.2373H137.298Z" fill="#ED1B76"/>
<path d="M140.21 51.2975H141.323V51.943H141.395C141.45 51.8291 141.522 51.7247 141.612 51.6297C141.703 51.5348 141.802 51.4525 141.911 51.3829C142.026 51.3133 142.146 51.2595 142.273 51.2215C142.406 51.1835 142.535 51.1646 142.662 51.1646C142.819 51.1646 142.952 51.1804 143.06 51.212C143.175 51.2437 143.271 51.2848 143.35 51.3354L143.033 52.4652C142.961 52.4272 142.879 52.3987 142.789 52.3797C142.704 52.3544 142.599 52.3418 142.472 52.3418C142.309 52.3418 142.161 52.3766 142.029 52.4462C141.896 52.5095 141.781 52.6013 141.685 52.7215C141.594 52.8418 141.522 52.9842 141.468 53.1487C141.419 53.307 141.395 53.481 141.395 53.6709V55.9494H140.21V51.2975Z" fill="#ED1B76"/>
<path d="M147.819 54.8291C147.614 55.2089 147.336 55.5158 146.987 55.75C146.643 55.9842 146.221 56.1013 145.72 56.1013C145.382 56.1013 145.068 56.0411 144.779 55.9209C144.495 55.7943 144.248 55.6203 144.037 55.3987C143.826 55.1772 143.66 54.9177 143.539 54.6203C143.425 54.3165 143.367 53.9842 143.367 53.6234C143.367 53.288 143.425 52.9715 143.539 52.6741C143.654 52.3703 143.814 52.1076 144.019 51.8861C144.224 51.6582 144.465 51.4778 144.743 51.3449C145.026 51.212 145.337 51.1456 145.675 51.1456C146.03 51.1456 146.347 51.2089 146.625 51.3354C146.902 51.4557 147.134 51.6266 147.321 51.8481C147.508 52.0633 147.65 52.3196 147.747 52.6171C147.843 52.9146 147.891 53.2373 147.891 53.5854C147.891 53.6297 147.891 53.6677 147.891 53.6994C147.885 53.7373 147.882 53.7722 147.882 53.8038C147.876 53.8354 147.873 53.8703 147.873 53.9082H144.535C144.559 54.0981 144.607 54.2627 144.679 54.4019C144.758 54.5348 144.851 54.6487 144.96 54.7437C145.074 54.8323 145.198 54.8987 145.331 54.943C145.463 54.981 145.599 55 145.738 55C146.009 55 146.233 54.9367 146.408 54.8101C146.588 54.6772 146.73 54.5127 146.833 54.3165L147.819 54.8291ZM146.742 53.0253C146.736 52.943 146.709 52.8513 146.661 52.75C146.619 52.6487 146.552 52.5538 146.462 52.4652C146.377 52.3766 146.269 52.3038 146.136 52.2468C146.009 52.1899 145.856 52.1614 145.675 52.1614C145.421 52.1614 145.198 52.2373 145.005 52.3892C144.812 52.5411 144.676 52.7532 144.598 53.0253H146.742Z" fill="#ED1B76"/>
<path d="M150.448 56.1013C150.158 56.1013 149.899 56.0633 149.67 55.9873C149.447 55.9114 149.251 55.8133 149.082 55.693C148.919 55.5665 148.78 55.4241 148.665 55.2658C148.551 55.1013 148.463 54.9367 148.403 54.7722L149.462 54.2975C149.564 54.538 149.7 54.7184 149.869 54.8386C150.044 54.9525 150.237 55.0095 150.448 55.0095C150.665 55.0095 150.837 54.9684 150.964 54.8861C151.09 54.8038 151.154 54.7057 151.154 54.5918C151.154 54.4652 151.099 54.3639 150.991 54.288C150.888 54.2057 150.707 54.1329 150.448 54.0696L149.824 53.9272C149.685 53.8956 149.54 53.8449 149.389 53.7753C149.245 53.7057 149.112 53.6171 148.991 53.5095C148.871 53.4019 148.771 53.2722 148.693 53.1203C148.614 52.9684 148.575 52.7911 148.575 52.5886C148.575 52.3608 148.62 52.1582 148.711 51.981C148.807 51.8038 148.937 51.6551 149.1 51.5348C149.263 51.4082 149.453 51.3133 149.67 51.25C149.893 51.1804 150.131 51.1456 150.385 51.1456C150.807 51.1456 151.184 51.2342 151.516 51.4114C151.847 51.5823 152.092 51.8576 152.249 52.2373L151.226 52.6741C151.142 52.4905 151.018 52.3576 150.855 52.2753C150.692 52.193 150.529 52.1519 150.367 52.1519C150.198 52.1519 150.05 52.1899 149.923 52.2658C149.796 52.3354 149.733 52.4272 149.733 52.5411C149.733 52.6487 149.784 52.7342 149.887 52.7975C149.996 52.8608 150.14 52.9177 150.321 52.9684L151 53.1392C151.452 53.2532 151.787 53.4367 152.004 53.6899C152.227 53.9367 152.339 54.231 152.339 54.5728C152.339 54.7753 152.294 54.9684 152.203 55.1519C152.113 55.3354 151.983 55.5 151.814 55.6456C151.651 55.7848 151.452 55.8956 151.217 55.9778C150.988 56.0601 150.731 56.1013 150.448 56.1013Z" fill="#ED1B76"/>
<path d="M157.309 54.8291C157.104 55.2089 156.826 55.5158 156.477 55.75C156.133 55.9842 155.711 56.1013 155.21 56.1013C154.872 56.1013 154.558 56.0411 154.269 55.9209C153.985 55.7943 153.738 55.6203 153.527 55.3987C153.316 55.1772 153.15 54.9177 153.029 54.6203C152.915 54.3165 152.857 53.9842 152.857 53.6234C152.857 53.288 152.915 52.9715 153.029 52.6741C153.144 52.3703 153.304 52.1076 153.509 51.8861C153.714 51.6582 153.955 51.4778 154.233 51.3449C154.516 51.212 154.827 51.1456 155.165 51.1456C155.52 51.1456 155.837 51.2089 156.115 51.3354C156.392 51.4557 156.624 51.6266 156.811 51.8481C156.998 52.0633 157.14 52.3196 157.237 52.6171C157.333 52.9146 157.381 53.2373 157.381 53.5854C157.381 53.6297 157.381 53.6677 157.381 53.6994C157.375 53.7373 157.372 53.7722 157.372 53.8038C157.366 53.8354 157.363 53.8703 157.363 53.9082H154.025C154.049 54.0981 154.097 54.2627 154.169 54.4019C154.248 54.5348 154.341 54.6487 154.45 54.7437C154.564 54.8323 154.688 54.8987 154.821 54.943C154.953 54.981 155.089 55 155.228 55C155.499 55 155.723 54.9367 155.897 54.8101C156.078 54.6772 156.22 54.5127 156.323 54.3165L157.309 54.8291ZM156.232 53.0253C156.226 52.943 156.199 52.8513 156.151 52.75C156.109 52.6487 156.042 52.5538 155.952 52.4652C155.867 52.3766 155.759 52.3038 155.626 52.2468C155.499 52.1899 155.346 52.1614 155.165 52.1614C154.911 52.1614 154.688 52.2373 154.495 52.3892C154.302 52.5411 154.166 52.7532 154.088 53.0253H156.232Z" fill="#ED1B76"/>
<path d="M159.251 51.9051H159.324C159.462 51.6709 159.649 51.4873 159.885 51.3544C160.12 51.2152 160.388 51.1456 160.69 51.1456C160.967 51.1456 161.212 51.193 161.423 51.288C161.634 51.3829 161.806 51.519 161.939 51.6962C162.077 51.8671 162.18 52.0759 162.246 52.3228C162.319 52.5633 162.355 52.8323 162.355 53.1297V55.9494H161.17V53.2816C161.17 52.9462 161.097 52.6994 160.952 52.5411C160.814 52.3766 160.609 52.2943 160.337 52.2943C160.174 52.2943 160.029 52.3323 159.903 52.4082C159.782 52.4778 159.677 52.5759 159.586 52.7025C159.502 52.8228 159.435 52.9684 159.387 53.1392C159.345 53.3038 159.324 53.481 159.324 53.6709V55.9494H158.138V51.2975H159.251V51.9051Z" fill="#ED1B76"/>
<path d="M163.593 52.3608H162.815V51.2975H163.593V49.8734H164.778V51.2975H165.864V52.3608H164.778V54.1646C164.778 54.2722 164.787 54.3734 164.805 54.4684C164.829 54.557 164.872 54.6329 164.932 54.6962C165.016 54.7975 165.137 54.8481 165.294 54.8481C165.397 54.8481 165.478 54.8386 165.538 54.8196C165.599 54.7943 165.656 54.7627 165.71 54.7247L166.045 55.8165C165.906 55.8861 165.755 55.9367 165.593 55.9684C165.436 56.0063 165.261 56.0253 165.068 56.0253C164.845 56.0253 164.642 55.9905 164.462 55.9209C164.287 55.8449 164.139 55.7437 164.018 55.6171C163.735 55.3323 163.593 54.9272 163.593 54.4019V52.3608Z" fill="#ED1B76"/>
<path d="M170.89 54.8291C170.685 55.2089 170.408 55.5158 170.058 55.75C169.714 55.9842 169.292 56.1013 168.791 56.1013C168.453 56.1013 168.139 56.0411 167.85 55.9209C167.566 55.7943 167.319 55.6203 167.108 55.3987C166.897 55.1772 166.731 54.9177 166.61 54.6203C166.496 54.3165 166.438 53.9842 166.438 53.6234C166.438 53.288 166.496 52.9715 166.61 52.6741C166.725 52.3703 166.885 52.1076 167.09 51.8861C167.295 51.6582 167.536 51.4778 167.814 51.3449C168.097 51.212 168.408 51.1456 168.746 51.1456C169.102 51.1456 169.418 51.2089 169.696 51.3354C169.973 51.4557 170.205 51.6266 170.392 51.8481C170.579 52.0633 170.721 52.3196 170.818 52.6171C170.914 52.9146 170.963 53.2373 170.963 53.5854C170.963 53.6297 170.963 53.6677 170.963 53.6994C170.956 53.7373 170.953 53.7722 170.953 53.8038C170.947 53.8354 170.944 53.8703 170.944 53.9082H167.606C167.63 54.0981 167.678 54.2627 167.75 54.4019C167.829 54.5348 167.922 54.6487 168.031 54.7437C168.146 54.8323 168.269 54.8987 168.402 54.943C168.535 54.981 168.67 55 168.809 55C169.08 55 169.304 54.9367 169.479 54.8101C169.66 54.6772 169.801 54.5127 169.904 54.3165L170.89 54.8291ZM169.813 53.0253C169.807 52.943 169.78 52.8513 169.732 52.75C169.69 52.6487 169.623 52.5538 169.533 52.4652C169.448 52.3766 169.34 52.3038 169.207 52.2468C169.08 52.1899 168.927 52.1614 168.746 52.1614C168.492 52.1614 168.269 52.2373 168.076 52.3892C167.883 52.5411 167.747 52.7532 167.669 53.0253H169.813Z" fill="#ED1B76"/>
<path d="M175.066 55.3892H174.994C174.885 55.5854 174.716 55.7532 174.487 55.8924C174.258 56.0316 173.974 56.1013 173.637 56.1013C173.353 56.1013 173.082 56.0411 172.822 55.9209C172.569 55.7943 172.343 55.6234 172.144 55.4082C171.951 55.1867 171.797 54.9241 171.682 54.6203C171.568 54.3165 171.51 53.9842 171.51 53.6234C171.51 53.2627 171.568 52.9304 171.682 52.6266C171.797 52.3228 171.951 52.0633 172.144 51.8481C172.343 51.6266 172.569 51.4557 172.822 51.3354C173.082 51.2089 173.353 51.1456 173.637 51.1456C173.974 51.1456 174.258 51.2152 174.487 51.3544C174.716 51.4937 174.885 51.6614 174.994 51.8576H175.066L174.994 51.193V49.1519H176.179V55.9494H175.066V55.3892ZM173.881 54.9525C174.038 54.9525 174.186 54.9241 174.324 54.8671C174.469 54.8038 174.596 54.7152 174.704 54.6013C174.813 54.4873 174.9 54.3481 174.967 54.1835C175.033 54.019 175.066 53.8323 175.066 53.6234C175.066 53.4146 175.033 53.2278 174.967 53.0633C174.9 52.8987 174.813 52.7595 174.704 52.6456C174.596 52.5316 174.469 52.4462 174.324 52.3892C174.186 52.3259 174.038 52.2943 173.881 52.2943C173.724 52.2943 173.573 52.3259 173.429 52.3892C173.29 52.4525 173.166 52.5411 173.058 52.6551C172.949 52.769 172.862 52.9082 172.795 53.0728C172.729 53.2373 172.696 53.4209 172.696 53.6234C172.696 53.8259 172.729 54.0095 172.795 54.1741C172.862 54.3386 172.949 54.4778 173.058 54.5918C173.166 54.7057 173.29 54.7943 173.429 54.8576C173.573 54.9209 173.724 54.9525 173.881 54.9525Z" fill="#ED1B76"/>
<path d="M179.322 49.1519H181.855C182.133 49.1519 182.392 49.1994 182.634 49.2943C182.875 49.3829 183.083 49.5095 183.258 49.6741C183.439 49.8323 183.581 50.019 183.683 50.2342C183.786 50.4494 183.837 50.6804 183.837 50.9272C183.837 51.288 183.753 51.5918 183.584 51.8386C183.421 52.0791 183.216 52.2627 182.968 52.3892V52.4652C183.3 52.5918 183.566 52.7911 183.765 53.0633C183.97 53.3291 184.072 53.6614 184.072 54.0601C184.072 54.3513 184.015 54.6139 183.9 54.8481C183.792 55.0759 183.641 55.2722 183.448 55.4367C183.255 55.6013 183.029 55.7278 182.769 55.8165C182.516 55.9051 182.242 55.9494 181.946 55.9494H179.322V49.1519ZM181.765 51.9241C182.049 51.9241 182.266 51.8449 182.416 51.6867C182.573 51.5222 182.652 51.3291 182.652 51.1076C182.652 50.8861 182.576 50.6962 182.426 50.538C182.275 50.3797 182.067 50.3006 181.801 50.3006H180.543V51.9241H181.765ZM181.901 54.7722C182.208 54.7722 182.444 54.693 182.606 54.5348C182.769 54.3703 182.851 54.1614 182.851 53.9082C182.851 53.6551 182.766 53.4462 182.597 53.2816C182.435 53.1108 182.19 53.0253 181.865 53.0253H180.543V54.7722H181.901Z" fill="#ED1B76"/>
<path d="M186.173 55.7215L184.309 51.2975H185.657L186.779 54.1171H186.842L187.919 51.2975H189.24L186.462 58H185.186L186.173 55.7215Z" fill="#ED1B76"/>
<path d="M191.913 49.1519H194.103C194.616 49.1519 195.077 49.2342 195.487 49.3987C195.898 49.5633 196.248 49.7975 196.537 50.1013C196.827 50.3987 197.047 50.7563 197.198 51.1741C197.354 51.5918 197.433 52.0506 197.433 52.5506C197.433 53.057 197.354 53.519 197.198 53.9367C197.047 54.3544 196.827 54.712 196.537 55.0095C196.248 55.307 195.898 55.538 195.487 55.7025C195.077 55.8671 194.616 55.9494 194.103 55.9494H191.913V49.1519ZM194.049 54.7342C194.405 54.7342 194.718 54.6835 194.99 54.5823C195.261 54.4747 195.487 54.3259 195.668 54.1361C195.849 53.9462 195.985 53.7184 196.076 53.4525C196.166 53.1804 196.211 52.8797 196.211 52.5506C196.211 52.2215 196.166 51.9241 196.076 51.6582C195.985 51.3861 195.849 51.1551 195.668 50.9652C195.487 50.7753 195.261 50.6297 194.99 50.5285C194.718 50.4209 194.405 50.3671 194.049 50.3671H193.135V54.7342H194.049Z" fill="#ED1B76"/>
<path d="M200.987 55.9494V54.7532H198.127V53.7468L200.878 49.4557H202.163V53.5949H202.941V54.7532H202.163V55.9494H200.987ZM200.987 51.307H200.914L199.439 53.5949H200.987V51.307Z" fill="#ED1B76"/>
<path d="M211.468 54.8576C211.148 55.2627 210.771 55.5728 210.337 55.788C209.903 55.9968 209.417 56.1013 208.88 56.1013C208.398 56.1013 207.948 56.0095 207.532 55.8259C207.122 55.6424 206.766 55.3924 206.464 55.0759C206.163 54.7595 205.924 54.3861 205.75 53.9557C205.575 53.519 205.487 53.0506 205.487 52.5506C205.487 52.0506 205.575 51.5854 205.75 51.1551C205.924 50.7184 206.163 50.3418 206.464 50.0253C206.766 49.7089 207.122 49.4589 207.532 49.2753C207.948 49.0918 208.398 49 208.88 49C209.399 49 209.854 49.0949 210.246 49.2848C210.645 49.4747 210.997 49.75 211.305 50.1108L210.446 50.9842C210.253 50.75 210.029 50.5633 209.776 50.4241C209.529 50.2848 209.233 50.2152 208.889 50.2152C208.588 50.2152 208.304 50.2722 208.039 50.3861C207.773 50.4937 207.541 50.6487 207.342 50.8513C207.149 51.0538 206.995 51.3006 206.881 51.5918C206.766 51.8766 206.709 52.1962 206.709 52.5506C206.709 52.9051 206.766 53.2278 206.881 53.519C206.995 53.8038 207.149 54.0475 207.342 54.25C207.541 54.4525 207.773 54.6108 208.039 54.7247C208.304 54.8323 208.588 54.8861 208.889 54.8861C209.251 54.8861 209.571 54.8101 209.848 54.6582C210.132 54.5 210.382 54.2785 210.599 53.9937L211.468 54.8576Z" fill="#ED1B76"/>
<path d="M214.226 51.1456C214.57 51.1456 214.884 51.2089 215.167 51.3354C215.457 51.4557 215.704 51.6266 215.909 51.8481C216.12 52.0633 216.283 52.3228 216.398 52.6266C216.518 52.9304 216.579 53.2627 216.579 53.6234C216.579 53.9842 216.518 54.3165 216.398 54.6203C216.283 54.9241 216.12 55.1867 215.909 55.4082C215.704 55.6234 215.457 55.7943 215.167 55.9209C214.884 56.0411 214.57 56.1013 214.226 56.1013C213.882 56.1013 213.566 56.0411 213.276 55.9209C212.993 55.7943 212.745 55.6234 212.534 55.4082C212.329 55.1867 212.166 54.9241 212.046 54.6203C211.931 54.3165 211.874 53.9842 211.874 53.6234C211.874 53.2627 211.931 52.9304 212.046 52.6266C212.166 52.3228 212.329 52.0633 212.534 51.8481C212.745 51.6266 212.993 51.4557 213.276 51.3354C213.566 51.2089 213.882 51.1456 214.226 51.1456ZM214.226 54.9525C214.377 54.9525 214.522 54.9241 214.661 54.8671C214.805 54.8038 214.932 54.7152 215.041 54.6013C215.149 54.4873 215.234 54.3481 215.294 54.1835C215.36 54.019 215.393 53.8323 215.393 53.6234C215.393 53.4146 215.36 53.2278 215.294 53.0633C215.234 52.8987 215.149 52.7595 215.041 52.6456C214.932 52.5316 214.805 52.4462 214.661 52.3892C214.522 52.3259 214.377 52.2943 214.226 52.2943C214.069 52.2943 213.922 52.3259 213.783 52.3892C213.644 52.4462 213.521 52.5316 213.412 52.6456C213.303 52.7595 213.216 52.8987 213.15 53.0633C213.089 53.2278 213.059 53.4146 213.059 53.6234C213.059 53.8323 213.089 54.019 213.15 54.1835C213.216 54.3481 213.303 54.4873 213.412 54.6013C213.521 54.7152 213.644 54.8038 213.783 54.8671C213.922 54.9241 214.069 54.9525 214.226 54.9525Z" fill="#ED1B76"/>
<path d="M217.252 51.2975H218.365V51.9051H218.437C218.576 51.6772 218.763 51.4937 218.998 51.3544C219.24 51.2152 219.505 51.1456 219.795 51.1456C220.132 51.1456 220.416 51.2278 220.645 51.3924C220.874 51.557 221.037 51.7595 221.134 52C221.272 51.7658 221.469 51.5665 221.722 51.4019C221.975 51.231 222.283 51.1456 222.645 51.1456C222.916 51.1456 223.151 51.193 223.351 51.288C223.55 51.3766 223.712 51.5032 223.839 51.6677C223.972 51.8323 224.071 52.0316 224.138 52.2658C224.204 52.4937 224.237 52.7437 224.237 53.0158V55.9494H223.052V53.2437C223.052 52.6108 222.805 52.2943 222.31 52.2943C222.153 52.2943 222.014 52.3323 221.894 52.4082C221.773 52.4778 221.671 52.5759 221.586 52.7025C221.508 52.8228 221.444 52.9684 221.396 53.1392C221.354 53.3101 221.333 53.4937 221.333 53.6899V55.9494H220.147V53.2437C220.147 52.6108 219.888 52.2943 219.369 52.2943C219.219 52.2943 219.086 52.3323 218.971 52.4082C218.857 52.4778 218.76 52.5759 218.682 52.7025C218.603 52.8228 218.543 52.9684 218.501 53.1392C218.458 53.3101 218.437 53.4937 218.437 53.6899V55.9494H217.252V51.2975Z" fill="#ED1B76"/>
<path d="M225.213 51.2975H226.326V51.9051H226.399C226.537 51.6772 226.724 51.4937 226.96 51.3544C227.201 51.2152 227.466 51.1456 227.756 51.1456C228.094 51.1456 228.377 51.2278 228.606 51.3924C228.836 51.557 228.999 51.7595 229.095 52C229.234 51.7658 229.43 51.5665 229.683 51.4019C229.937 51.231 230.244 51.1456 230.606 51.1456C230.878 51.1456 231.113 51.193 231.312 51.288C231.511 51.3766 231.674 51.5032 231.8 51.6677C231.933 51.8323 232.033 52.0316 232.099 52.2658C232.165 52.4937 232.199 52.7437 232.199 53.0158V55.9494H231.013V53.2437C231.013 52.6108 230.766 52.2943 230.271 52.2943C230.115 52.2943 229.976 52.3323 229.855 52.4082C229.734 52.4778 229.632 52.5759 229.547 52.7025C229.469 52.8228 229.406 52.9684 229.357 53.1392C229.315 53.3101 229.294 53.4937 229.294 53.6899V55.9494H228.109V53.2437C228.109 52.6108 227.849 52.2943 227.331 52.2943C227.18 52.2943 227.047 52.3323 226.933 52.4082C226.818 52.4778 226.721 52.5759 226.643 52.7025C226.565 52.8228 226.504 52.9684 226.462 53.1392C226.42 53.3101 226.399 53.4937 226.399 53.6899V55.9494H225.213V51.2975Z" fill="#ED1B76"/>
<path d="M236.242 55.3418H236.17C236.031 55.5759 235.844 55.7627 235.609 55.9019C235.373 56.0348 235.105 56.1013 234.803 56.1013C234.242 56.1013 233.823 55.9209 233.546 55.5601C233.274 55.1994 233.139 54.7184 233.139 54.1171V51.2975H234.324V53.9652C234.324 54.3006 234.393 54.5506 234.532 54.7152C234.677 54.8734 234.885 54.9525 235.156 54.9525C235.319 54.9525 235.461 54.9177 235.582 54.8481C235.708 54.7722 235.814 54.6741 235.898 54.5538C235.989 54.4272 236.055 54.2816 236.097 54.1171C236.146 53.9462 236.17 53.7658 236.17 53.5759V51.2975H237.355V55.9494H236.242V55.3418Z" fill="#ED1B76"/>
<path d="M239.483 51.9051H239.556C239.694 51.6709 239.881 51.4873 240.117 51.3544C240.352 51.2152 240.62 51.1456 240.922 51.1456C241.199 51.1456 241.444 51.193 241.655 51.288C241.866 51.3829 242.038 51.519 242.171 51.6962C242.309 51.8671 242.412 52.0759 242.478 52.3228C242.551 52.5633 242.587 52.8323 242.587 53.1297V55.9494H241.402V53.2816C241.402 52.9462 241.329 52.6994 241.184 52.5411C241.046 52.3766 240.841 52.2943 240.569 52.2943C240.406 52.2943 240.261 52.3323 240.135 52.4082C240.014 52.4778 239.909 52.5759 239.818 52.7025C239.734 52.8228 239.667 52.9684 239.619 53.1392C239.577 53.3038 239.556 53.481 239.556 53.6709V55.9494H238.37V51.2975H239.483V51.9051Z" fill="#ED1B76"/>
<path d="M244.227 50.6234C244.124 50.6234 244.024 50.6044 243.928 50.5665C243.837 50.5222 243.756 50.4652 243.684 50.3956C243.617 50.3196 243.563 50.2342 243.521 50.1392C243.485 50.0443 243.466 49.9399 243.466 49.8259C243.466 49.712 243.485 49.6076 243.521 49.5127C243.563 49.4177 243.617 49.3354 243.684 49.2658C243.756 49.1899 243.837 49.1329 243.928 49.0949C244.024 49.0506 244.124 49.0285 244.227 49.0285C244.438 49.0285 244.619 49.1076 244.769 49.2658C244.92 49.4177 244.996 49.6044 244.996 49.8259C244.996 50.0475 244.92 50.2373 244.769 50.3956C244.619 50.5475 244.438 50.6234 244.227 50.6234ZM243.638 55.9494V51.2975H244.824V55.9494H243.638Z" fill="#ED1B76"/>
<path d="M246.352 52.3608H245.574V51.2975H246.352V49.8734H247.537V51.2975H248.623V52.3608H247.537V54.1646C247.537 54.2722 247.546 54.3734 247.564 54.4684C247.589 54.557 247.631 54.6329 247.691 54.6962C247.776 54.7975 247.896 54.8481 248.053 54.8481C248.156 54.8481 248.237 54.8386 248.297 54.8196C248.358 54.7943 248.415 54.7627 248.469 54.7247L248.804 55.8165C248.665 55.8861 248.515 55.9367 248.352 55.9684C248.195 56.0063 248.02 56.0253 247.827 56.0253C247.604 56.0253 247.402 55.9905 247.221 55.9209C247.046 55.8449 246.898 55.7437 246.777 55.6171C246.494 55.3323 246.352 54.9272 246.352 54.4019V52.3608Z" fill="#ED1B76"/>
<path d="M250.933 55.7215L249.069 51.2975H250.417L251.539 54.1171H251.602L252.679 51.2975H254L251.222 58H249.946L250.933 55.7215Z" fill="#ED1B76"/>
</svg>
